<?xml version="1.0" encoding="UTF-8" standalone="no"?>
<!DOCTYPE svg PUBLIC "-//W3C//DTD SVG 1.1//EN" "http://www.w3.org/Graphics/SVG/1.1/DTD/svg11.dtd">
<svg width="100%" height="100%" viewBox="0 0 512 512" version="1.1" xmlns="http://www.w3.org/2000/svg" xmlns:xlink="http://www.w3.org/1999/xlink" xml:space="preserve" xmlns:serif="http://www.serif.com/" style="fill-rule:evenodd;clip-rule:evenodd;stroke-linecap:round;stroke-linejoin:round;stroke-miterlimit:1.5;">
    <g transform="matrix(0.936933,0,0,0.939362,16.5121,17.7978)">
        <ellipse cx="254.998" cy="255.15" rx="255.045" ry="254.386" style="fill:white;stroke:black;stroke-width:31.98px;"/>
    </g>
    <g transform="matrix(158.572,0,0,204.337,274.683,333.512)">
        <path d="M0.32,0.007C0.271,0.007 0.228,-0.004 0.191,-0.025C0.153,-0.047 0.125,-0.078 0.104,-0.118C0.083,-0.158 0.073,-0.205 0.073,-0.257L0.073,-0.452C0.073,-0.505 0.083,-0.551 0.104,-0.591C0.125,-0.631 0.153,-0.662 0.191,-0.684C0.228,-0.706 0.271,-0.717 0.32,-0.717C0.361,-0.717 0.398,-0.709 0.433,-0.692C0.467,-0.676 0.495,-0.652 0.518,-0.622C0.541,-0.591 0.557,-0.556 0.565,-0.516L0.495,-0.516C0.487,-0.543 0.474,-0.566 0.456,-0.587C0.439,-0.607 0.418,-0.623 0.394,-0.635C0.37,-0.646 0.346,-0.652 0.32,-0.652C0.285,-0.652 0.254,-0.644 0.228,-0.627C0.201,-0.61 0.18,-0.587 0.166,-0.557C0.151,-0.527 0.144,-0.492 0.144,-0.452L0.144,-0.257C0.144,-0.218 0.151,-0.183 0.166,-0.153C0.18,-0.122 0.201,-0.099 0.228,-0.083C0.254,-0.066 0.285,-0.058 0.32,-0.058C0.346,-0.058 0.37,-0.063 0.394,-0.074C0.418,-0.085 0.439,-0.101 0.456,-0.121C0.474,-0.142 0.487,-0.166 0.495,-0.194L0.565,-0.194C0.557,-0.154 0.541,-0.119 0.518,-0.088C0.495,-0.058 0.466,-0.034 0.432,-0.018C0.398,-0.001 0.361,0.007 0.32,0.007Z" style="fill-rule:nonzero;stroke:black;stroke-width:0.05px;stroke-linecap:butt;stroke-linejoin:miter;stroke-miterlimit:2;"/>
    </g>
    <g transform="matrix(199.504,0,0,201.647,359.332,332.23)">
        <path d="M0.49,-0.658L0.14,-0.061L0.5,-0.061L0.5,0L0.059,0L0.059,-0.052L0.412,-0.649L0.067,-0.649L0.067,-0.71L0.49,-0.71L0.49,-0.658Z" style="fill-rule:nonzero;stroke:black;stroke-width:0.05px;stroke-linecap:butt;stroke-linejoin:miter;stroke-miterlimit:2;"/>
    </g>
    <g transform="matrix(549.626,0,0,627.492,47.027,476.964)">
        <path d="M0.191,0.007C0.154,0.007 0.137,-0.016 0.106,-0.031C0.075,-0.045 0.054,-0.068 0.035,-0.094L0.062,-0.124C0.077,-0.103 0.097,-0.087 0.121,-0.076C0.145,-0.065 0.171,-0.059 0.201,-0.059C0.247,-0.059 0.283,-0.074 0.309,-0.105C0.334,-0.136 0.347,-0.18 0.347,-0.236L0.347,-0.71L0.417,-0.71L0.417,-0.235C0.417,-0.184 0.409,-0.141 0.391,-0.104C0.373,-0.068 0.347,-0.04 0.313,-0.021C0.28,-0.002 0.239,0.007 0.191,0.007Z" style="fill-rule:nonzero;"/>
    </g>
</svg>
